<svg width="189" height="51" viewBox="0 0 189 51" fill="none" xmlns="http://www.w3.org/2000/svg">
<path d="M110.393 46.9334C109.773 47.489 109.165 48.0839 108.511 48.6068C106.791 49.9861 104.799 50.6398 102.626 50.8686C100 51.1432 97.5557 50.4829 95.1433 49.5351C93.0996 48.731 91.4828 47.3779 90.1247 45.6717C88.9088 44.1486 87.7253 42.6059 86.891 40.7167C86.7487 40.9455 86.6323 41.1155 86.5288 41.2985C84.6015 44.7043 81.9952 47.404 78.4834 49.1494C76.5496 50.1103 74.5059 50.6267 72.3523 50.7967C69.6554 51.0124 67.0296 50.6725 64.4621 49.8488C62.302 49.1494 60.3812 48.025 58.6802 46.5085C57.0893 45.0834 55.7311 43.4753 54.6834 41.4815C54.5023 41.7626 54.3536 41.9914 54.2048 42.2137C51.7925 45.9332 48.5847 48.6395 44.3485 50.0057C42.0591 50.7444 39.7114 50.9209 37.3314 50.7183C34.4599 50.4699 31.763 49.6266 29.286 48.1362C26.6408 46.5477 24.3837 44.5212 22.8186 41.8084C21.9003 40.2199 21.3958 38.4615 21.0789 36.6573C20.5809 33.8464 20.6326 31.0355 21.3053 28.2573C21.5381 27.2963 21.9585 26.3746 22.2948 25.4398C22.3594 25.2568 22.4112 25.0738 22.4694 24.8842C20.8137 24.9365 19.2098 24.9888 17.5606 25.0476C17.5412 25.2306 17.5089 25.3941 17.5089 25.564C17.5089 31.7022 17.5089 37.8339 17.5089 43.9721C17.5089 44.7043 17.5283 45.456 17.4184 46.1751C17.0691 48.463 15.7045 49.8488 13.525 50.4502C11.4748 51.0124 8.71326 49.9273 7.58147 48.11C6.94767 47.0968 6.81185 45.9593 6.85713 44.7958C6.88946 43.9721 6.9412 43.1485 6.97354 42.3248C6.98647 41.913 6.97354 41.4946 6.97354 41.0828C6.99941 39.9519 7.06408 38.8275 7.05761 37.6966C7.03174 33.8071 6.98001 29.9111 6.92827 26.0216C6.92827 25.6817 6.85066 25.3352 6.80539 24.9234C6.16512 24.9234 5.52485 24.9496 4.88457 24.9169C4.04382 24.8711 3.23539 24.6489 2.45284 24.3155C0.654908 23.5441 -0.315199 21.485 0.0922456 19.5892C0.247463 18.8636 0.480288 18.1642 0.900668 17.5497C1.63795 16.4646 2.6598 15.922 3.95327 15.8959C4.85871 15.8762 5.75767 15.8501 6.6631 15.824C6.74718 15.824 6.82479 15.7978 6.94767 15.7782C6.94767 15.4775 6.94767 15.2029 6.94767 14.9284C6.88946 12.4509 6.94767 9.98645 7.5362 7.5547C8.19587 4.84839 9.83212 2.99843 12.2121 1.72373C14.8702 0.311743 17.6706 0.0894866 20.568 0.59937C20.7555 0.632054 20.9495 0.677813 21.1436 0.677813C21.6998 0.690887 22.2042 0.873922 22.6634 1.17462C24.7006 2.50163 25.6578 5.36482 24.3514 7.63968C23.53 9.07127 22.2366 9.88839 20.5615 9.99298C19.8501 10.0387 19.1451 10.0649 18.5307 10.5094C18.0457 10.8559 17.7611 11.2742 17.7741 11.9149C17.787 13 17.7288 14.0851 17.6965 15.1703C17.6965 15.3794 17.6965 15.5952 17.6965 15.8632C18.0004 15.8762 18.2268 15.9024 18.4596 15.9024C19.669 15.9024 20.8719 15.9024 22.0813 15.9024C24.0992 15.9024 25.6772 17.1902 26.0976 19.1709C26.1235 19.2951 26.1687 19.4127 26.2205 19.5958C30.6765 15.8109 35.7663 14.1963 41.4964 15.0461C47.2912 15.9024 51.6631 18.9617 54.5476 24.2109C58.3439 18.0923 63.6407 14.68 70.8001 14.8173C77.9401 14.9545 83.2434 18.3145 86.6323 24.7927C86.9233 24.3155 87.1755 23.8971 87.4277 23.4853C88.2556 22.1583 89.1481 20.8836 90.1893 19.72C91.0495 18.7525 92.0907 18.0334 93.1967 17.3863C94.9946 16.3273 96.8443 15.4317 98.9268 15.118C100.912 14.8173 102.904 14.6865 104.883 15.1703C106.707 15.6148 108.382 16.3731 109.818 17.6151C109.908 17.6935 110.025 17.7458 110.199 17.857C110.219 17.6282 110.238 17.4647 110.238 17.3013C110.251 13.7779 110.258 10.2545 110.283 6.73104C110.283 5.84201 110.232 4.92684 110.419 4.0705C110.82 2.24015 111.881 0.873922 113.711 0.298669C115.173 -0.158918 116.641 -0.0935484 118.07 0.514389C119.538 1.14194 120.36 2.29898 120.689 3.8417C120.774 4.24046 120.806 4.65882 120.806 5.07065C120.825 8.57446 120.832 12.0783 120.851 15.5821C120.871 18.1054 120.909 20.6221 120.935 23.1454C120.948 24.6489 120.968 26.1458 120.974 27.6493C121.006 33.258 121.052 38.8667 121.052 44.482C121.052 45.9267 120.786 47.3321 119.985 48.5807C119.111 49.9273 117.831 50.5287 116.298 50.666C115.457 50.7379 114.623 50.6006 113.802 50.4306C112.78 50.2149 112.094 49.5285 111.512 48.7376C111.066 48.1296 110.71 47.4563 110.387 46.9464L110.393 46.9334ZM31.3944 32.7808C31.3944 32.9312 31.3814 33.0881 31.3944 33.2384C31.4073 33.4084 31.459 33.5783 31.472 33.7483C31.7113 36.1147 32.6296 38.1477 34.4534 39.6839C36.4648 41.3769 38.7348 41.8215 41.1989 40.8148C43.0874 40.0434 44.3744 38.6118 45.2152 36.7749C45.9136 35.2583 46.1853 33.6568 46.03 31.9703C45.8037 29.5254 44.8853 27.4401 43.0098 25.8517C40.2999 23.5506 36.5941 23.7075 34.0589 26.2112C32.2416 28.0089 31.4784 30.2576 31.3879 32.7808H31.3944ZM77.9724 32.7874C77.9918 30.8067 77.4551 29.0025 76.3233 27.3944C75.1268 25.6948 73.5423 24.5508 71.4469 24.2893C68.944 23.9821 66.9262 24.9757 65.3675 26.8845C63.5761 29.094 62.9811 31.6695 63.4661 34.4674C63.8541 36.703 64.8825 38.5922 66.7192 39.978C67.8963 40.8605 69.2221 41.3508 70.6772 41.3377C72.4428 41.3181 73.9885 40.6317 75.2691 39.3962C77.1252 37.5986 77.9401 35.3499 77.966 32.7808L77.9724 32.7874ZM102.031 33.7875C100.162 32.101 98.3253 30.4537 96.4433 28.7541C95.318 30.5975 94.2573 32.3559 93.1643 34.1471C96.2299 36.4808 99.2631 38.7883 102.329 41.122C102.484 40.8932 102.594 40.7363 102.697 40.5729C105.103 36.5984 107.729 32.7874 110.71 29.2313C112.605 26.976 114.636 24.8515 116.971 23.0473C117.081 22.9623 117.171 22.8643 117.268 22.7727C117.236 22.7335 117.204 22.6943 117.178 22.6551C110.646 24.2305 105.847 28.2573 102.038 33.7745L102.031 33.7875Z" fill="#51B078"/>
<path d="M150.413 18.3999C150.472 18.3607 150.562 18.3345 150.614 18.2757C152.257 16.5369 154.339 15.6413 156.629 15.2295C159.765 14.6738 162.883 14.7 165.922 15.8178C168.664 16.831 170.773 18.5829 172.092 21.2369C172.668 22.394 172.926 23.6556 173.036 24.9369C173.172 26.4469 173.276 27.9635 173.289 29.48C173.321 34.5919 173.301 39.7038 173.295 44.8223C173.295 45.8944 173.107 46.9403 172.668 47.9208C172.014 49.372 170.915 50.2545 169.35 50.516C168.341 50.6859 167.339 50.6794 166.349 50.4049C164.364 49.8688 163.174 48.568 162.766 46.5546C162.656 46.0055 162.611 45.4368 162.611 44.8746C162.598 39.7365 162.63 34.605 162.591 29.467C162.579 27.5909 161.919 25.9239 160.477 24.6754C159.144 23.5249 157.56 23.2503 155.865 23.5249C154.65 23.721 153.544 24.1851 152.638 25.0414C151.565 26.0547 150.84 27.2967 150.821 28.8067C150.763 34.2847 150.743 39.7692 150.724 45.2472C150.724 46.2473 150.51 47.1887 150.071 48.0777C149.456 49.3197 148.473 50.0976 147.128 50.4049C146.041 50.6533 144.955 50.6859 143.868 50.4375C141.915 49.9865 140.738 48.7183 140.176 46.8226C140.053 46.4108 139.988 45.9728 139.982 45.5414C139.943 39.1874 139.917 32.84 139.884 26.4926C139.878 24.8584 139.852 23.2307 139.846 21.5965C139.846 20.1322 140.163 18.7529 140.939 17.4978C141.883 15.9681 143.222 15.0399 145.026 15.0726C146.908 15.1053 148.551 15.8178 149.78 17.3213C150.032 17.6351 150.194 18.0273 150.413 18.3999Z" fill="#51B078"/>
<path d="M187.776 32.9182C187.776 37.0953 187.789 41.2724 187.776 45.4495C187.763 48.2212 185.913 50.2607 183.611 50.7053C180.099 51.3851 177.648 48.8684 177.344 46.2928C177.298 45.9071 177.26 45.5149 177.26 45.1292C177.26 36.9253 177.247 28.7215 177.26 20.5241C177.26 18.3931 178.172 16.7196 180.041 15.7194C183.333 13.9675 187.213 16.0201 187.692 19.6155C187.743 20.0208 187.782 20.4326 187.782 20.8444C187.789 24.8712 187.782 28.8914 187.782 32.9182H187.776Z" fill="#51B078"/>
<path d="M125.365 32.8923C125.365 28.6955 125.397 24.4923 125.352 20.2956C125.326 17.7396 127.298 15.0464 130.539 15.0071C133.669 14.9745 135.751 17.5043 135.81 20.0014C135.816 20.4132 135.842 20.825 135.842 21.2434C135.842 29.1401 135.842 37.0432 135.842 44.9399C135.842 45.8812 135.745 46.8029 135.35 47.6723C134.406 49.7642 132.194 51.0062 129.918 50.7186C127.648 50.4309 125.792 48.666 125.41 46.4107C125.358 46.1166 125.358 45.8028 125.358 45.5021C125.358 41.3053 125.358 37.1021 125.358 32.9054L125.365 32.8923Z" fill="#51B078"/>
<path d="M188.08 5.60006C188.21 8.16255 186.095 11.0715 182.635 11.0911C179.686 11.1042 177.163 8.85547 177.15 5.54777C177.144 2.18123 179.828 0.0371077 182.654 0.0240338C185.636 0.0044229 188.248 2.65843 188.08 5.60006Z" fill="#51B078"/>
<path d="M130.441 0.161501C133.41 0.161501 135.835 2.52788 135.783 5.52181C135.719 8.97333 133.041 10.9344 130.39 10.9213C127.492 10.9083 125.08 8.46998 125.093 5.5022C125.106 2.42983 127.744 0.00461427 130.441 0.161501Z" fill="#51B078"/>
</svg>
