<svg width="140" height="140" viewBox="0 0 140 140" fill="none" xmlns="http://www.w3.org/2000/svg">
<g clip-path="url(#clip0_106_6930)">
<path d="M70 140C108.66 140 140 108.66 140 70C140 31.3401 108.66 0 70 0C31.3401 0 0 31.3401 0 70C0 108.66 31.3401 140 70 140Z" fill="#FFBF3C"/>
<path d="M31.7285 78.8476L23.7066 79.8198C21.8185 80.0486 20.3638 81.6012 20.3638 83.4885V102.088C20.3638 103.976 21.9368 105.236 23.8241 105.003L31.7285 104.024C33.6158 103.79 35.0705 102.236 35.0705 100.352V95.0114L30.1163 95.6203V99.4702L25.358 100.057V84.3755L30.1163 83.7965V87.4099L35.0705 86.8052V81.7012C35.0705 79.8168 33.6158 78.6189 31.7285 78.8476Z" fill="#572360"/>
<path d="M50.8799 80.3683L44.467 81.148V74.0483L39.552 74.6423V103.056L41.2418 102.846C43.0447 102.623 44.5062 100.984 44.5062 99.1859V85.9287L49.3469 85.3377V101.843L51.0766 101.629C52.8795 101.406 54.3411 99.7683 54.3411 97.9717V83.3964C54.3411 81.4994 52.7836 80.1369 50.8799 80.3683Z" fill="#572360"/>
<path d="M77.5782 98.3483L79.3471 98.1293C81.15 97.9061 82.6116 96.2731 82.6116 94.4818V76.5103L77.5782 77.1223V98.3483Z" fill="#572360"/>
<path d="M96.5297 86.0147L101.524 85.4017V77.643C101.524 75.7553 99.9664 74.4002 98.0627 74.6317L86.9347 75.9847V97.1901L88.6245 96.9809C90.4274 96.7577 91.8889 95.1261 91.8889 93.3365V80.1047L96.5297 79.5382V86.0147Z" fill="#572360"/>
<path d="M117.959 80.3482L110.92 81.21V77.7424L116.358 77.0786C118.171 76.8572 119.637 75.2153 119.622 73.4223L119.61 72.0117L108.757 73.3313C107.105 73.5322 105.847 74.6593 105.847 76.5299V83.1953C105.847 85.1436 107.144 86.0368 108.796 85.8338L115.442 85.0171V88.9495L96.4512 91.2911V96.012L117.093 93.4567C118.939 93.2282 120.436 91.5617 120.436 89.7347V82.8856C120.436 81.0178 119.492 80.1605 117.959 80.3482Z" fill="#572360"/>
<path d="M51.0383 52.7142L43.0164 53.6666C41.1283 53.8908 39.516 55.2594 39.516 57.3393V65.9344C39.516 67.4644 41.1282 68.6441 43.0164 68.4171L49.5044 67.6369V73.4397L46.6286 73.7872V78.3754L50.9199 77.8548C52.8072 77.6258 54.3802 75.9854 54.3802 74.1039V65.7189C54.3802 63.8374 52.9255 62.6402 51.0382 62.8662L44.5885 63.6387V58.0691L49.5043 57.4832V60.0704L54.3801 59.4879V55.5695C54.3801 53.6888 52.9256 52.4902 51.0383 52.7142Z" fill="#572360"/>
<path d="M70.1089 54.3459L62.3613 55.2688C60.4876 55.492 58.9632 57.139 58.9632 58.9403L58.9437 78.1344V97.3262C58.9437 99.1275 60.415 100.411 62.2235 100.187L69.9711 99.2279C71.8448 98.996 73.3692 97.344 73.3692 95.5455L73.3887 76.3801V57.2171C73.3887 55.4185 71.9174 54.1305 70.1089 54.3459ZM72.0839 95.7028C72.0839 96.8159 71.1558 97.8027 69.971 97.9492L62.3426 98.8925C61.1573 99.0391 60.2289 98.2814 60.2289 97.1675V77.9783L60.2484 58.788C60.2484 57.6735 61.1765 56.6897 62.3613 56.5484L69.9896 55.6387C71.1749 55.4973 72.1034 56.2581 72.1034 57.3706V76.5361L72.0839 95.7028Z" fill="#572360"/>
<path d="M69.9897 55.7626L62.3614 56.6724C61.2464 56.8054 60.373 57.7282 60.373 58.7732L60.3535 77.9632V97.1522C60.3535 98.1965 61.2273 98.9065 62.3427 98.7686L69.9711 97.8254C71.0861 97.6875 71.9595 96.7619 71.9595 95.7181L71.979 76.5512V57.3854C71.979 56.3424 71.1052 55.6296 69.9897 55.7626ZM70.6742 95.8756C70.6742 96.2141 70.3785 96.4964 69.971 96.5467L62.3426 97.4889C61.9413 97.5385 61.6386 97.3255 61.6386 96.9935V77.8071L61.6581 58.6209C61.6581 58.282 61.9538 58.0007 62.3613 57.9521L69.9896 57.0412C70.3909 56.9933 70.6936 57.2073 70.6936 57.5389V76.7073L70.6742 95.8756Z" fill="#572360"/>
<path d="M69.9897 57.1653L62.3614 58.0762C62.0261 58.1162 61.7827 58.3392 61.7827 58.6062L61.7632 77.7921V96.9782C61.7632 97.2395 62.0123 97.4058 62.3427 97.365L69.9711 96.4229C70.3064 96.3815 70.5498 96.1578 70.5498 95.8909L70.5693 76.7225V57.5539C70.5693 57.2928 70.3201 57.1258 69.9897 57.1653ZM69.2654 95.1696V95.2315L69.2031 95.2392L63.1106 95.9908L63.0483 95.9985V77.6362L63.0669 59.3336V59.2717L63.1292 59.2643L69.2217 58.5359L69.284 58.5285V76.8789L69.2654 95.1696Z" fill="#572360"/>
<path d="M69.1595 58.6671L63.1915 59.3807L63.1729 77.621V95.8591L69.1409 95.1229L69.1595 76.8938L69.1595 58.6671ZM67.8571 93.9405V94.0024L67.7948 94.0101L64.5204 94.4136L64.458 94.4213V77.465L64.4753 60.5686V60.5067L64.5374 60.4993L67.8118 60.1074L67.8741 60.1V77.0502L67.8571 93.9405Z" fill="#572360"/>
<path d="M81.0385 74.2005L92.1673 72.8503V51.6565L87.2123 52.2467V68.8436L82.5724 69.4043V52.7994L77.5782 53.3943V71.2973C77.5782 73.1743 79.1511 74.4295 81.0385 74.2005Z" fill="#572360"/>
<path d="M101.524 68.4782V43.1719L96.4513 43.7722V72.3306L98.2594 72.1112C100.062 71.8925 101.524 70.266 101.524 68.4782Z" fill="#572360"/>
<path d="M98.6942 24.3501L34.922 31.9211L32.0923 32.2571V75.5465L34.922 75.2036V40.0288L98.6942 32.4578V40.8031L101.524 40.4647V24.0142L98.6942 24.3501ZM98.6942 29.6081L34.922 37.1791V34.7708L98.6942 27.1998V29.6081Z" fill="white"/>
<path d="M49.3787 109.233C70.213 119.815 84.8511 108.052 90.4566 101.545C91.1596 100.729 92.496 101.191 92.5504 102.266C92.5871 102.993 92.3448 103.705 91.867 104.254C87.0718 109.758 70.603 123.492 48.8442 110.183C48.6138 110.042 48.522 109.751 48.628 109.503C48.7522 109.212 49.0967 109.09 49.3787 109.233Z" fill="white"/>
<path d="M62.6885 51.3231L60.0694 51.6356C59.5103 51.7025 59.1143 51.3392 59.1143 50.7767V44.2376L60.5933 44.0613V50.0144L62.1651 49.8269V43.8738L63.6436 43.6975V50.2366C63.6436 50.7991 63.2476 51.2567 62.6885 51.3231Z" fill="white"/>
<path d="M67.9829 46.1419C68.7397 46.0516 68.9492 46.4134 68.9492 47.1751V50.5735L67.6221 50.7317V47.6145L66.3648 47.7644V50.8816L64.8394 51.0637V43.552L66.3648 43.3699V46.3347L66.5044 46.3181L67.7266 43.2077L69.2168 43.03L67.9829 46.1419Z" fill="white"/>
</g>
<defs>
<clipPath id="clip0_106_6930">
<rect width="140" height="140" fill="white"/>
</clipPath>
</defs>
</svg>
