<svg width="61" height="61" viewBox="0 0 61 61" fill="none" xmlns="http://www.w3.org/2000/svg">
<rect x="0.980469" y="0.606934" width="60" height="60" rx="20" fill="white" fill-opacity="0.05"/>
<path opacity="0.2" d="M34.918 30.6069C34.918 31.3857 34.687 32.147 34.2544 32.7945C33.8217 33.442 33.2068 33.9467 32.4873 34.2447C31.7678 34.5427 30.9761 34.6207 30.2123 34.4688C29.4485 34.3168 28.7469 33.9418 28.1962 33.3912C27.6456 32.8405 27.2706 32.1389 27.1186 31.3751C26.9667 30.6113 27.0447 29.8196 27.3427 29.1001C27.6407 28.3806 28.1454 27.7657 28.7929 27.333C29.4404 26.9004 30.2017 26.6694 30.9805 26.6694C32.0248 26.6694 33.0263 27.0843 33.7647 27.8227C34.5031 28.5611 34.918 29.5626 34.918 30.6069Z" fill="#1D9ED9"/>
<path d="M42.7934 34.5444C41.6332 34.5438 40.5059 34.9294 39.5892 35.6404L35.7977 32.6872C36.084 32.0311 36.2314 31.3228 36.2309 30.6069C36.2309 30.4855 36.2309 30.3641 36.2177 30.2443L38.3883 29.5208C39.075 30.5799 40.1203 31.3561 41.3327 31.7073C42.545 32.0585 43.8434 31.9612 44.9898 31.4331C46.1363 30.905 47.0541 29.9815 47.5752 28.8319C48.0962 27.6822 48.1856 26.3833 47.827 25.1731C47.4684 23.9629 46.6858 22.9223 45.6225 22.2421C44.5592 21.5619 43.2865 21.2876 42.0374 21.4693C40.7883 21.6511 39.6465 22.2768 38.8212 23.2318C37.9959 24.1868 37.5422 25.4072 37.5434 26.6694C37.5434 26.7908 37.5434 26.9122 37.5565 27.032L35.3859 27.7555C34.9101 27.0199 34.2578 26.4151 33.4884 25.9961C32.719 25.5772 31.8569 25.3574 30.9809 25.3569C30.6912 25.3575 30.402 25.3817 30.1162 25.4291L28.9941 22.896C29.963 22.1218 30.6266 21.0295 30.8672 19.8127C31.1078 18.596 30.9098 17.3333 30.3083 16.2486C29.7069 15.1639 28.7408 14.3272 27.5814 13.8867C26.4219 13.4462 25.144 13.4304 23.974 13.8422C22.8041 14.2539 21.8176 15.0666 21.1896 16.1362C20.5616 17.2057 20.3326 18.4631 20.543 19.6854C20.7535 20.9077 21.39 22.016 22.3396 22.8139C23.2891 23.6118 24.4906 24.0477 25.7309 24.0444C26.0205 24.0438 26.3097 24.0197 26.5955 23.9722L27.7177 26.4988C26.766 27.252 26.1055 28.3123 25.8491 29.4985C25.5926 30.6847 25.7561 31.9232 26.3116 33.0022L22.0936 36.7494C21.0321 36.0338 19.746 35.7299 18.4765 35.8946C17.2069 36.0594 16.041 36.6815 15.1973 37.6444C14.3537 38.6073 13.8901 39.8448 13.8936 41.125C13.897 42.4052 14.3673 43.6402 15.2162 44.5985C16.0651 45.5568 17.2343 46.1726 18.5047 46.3304C19.7752 46.4883 21.0596 46.1774 22.1172 45.4561C23.1748 44.7347 23.933 43.6524 24.2497 42.412C24.5665 41.1716 24.4199 39.8583 23.8376 38.7182L28.0556 34.971C28.9689 35.5859 30.0528 35.8972 31.1532 35.8607C32.2536 35.8242 33.3145 35.4417 34.185 34.7675L37.9765 37.7207C37.6911 38.3748 37.5437 39.0807 37.5434 39.7944C37.5434 40.8328 37.8513 41.8478 38.4281 42.7112C39.005 43.5745 39.825 44.2474 40.7843 44.6448C41.7436 45.0421 42.7992 45.1461 43.8176 44.9435C44.836 44.741 45.7714 44.2409 46.5057 43.5067C47.2399 42.7725 47.7399 41.837 47.9425 40.8186C48.1451 39.8002 48.0411 38.7446 47.6437 37.7853C47.2464 36.826 46.5735 36.0061 45.7101 35.4292C44.8467 34.8523 43.8317 34.5444 42.7934 34.5444ZM42.7934 24.0444C43.3125 24.0444 43.82 24.1984 44.2517 24.4868C44.6834 24.7752 45.0199 25.1852 45.2185 25.6649C45.4172 26.1445 45.4692 26.6723 45.3679 27.1815C45.2666 27.6907 45.0166 28.1585 44.6495 28.5256C44.2824 28.8927 43.8147 29.1427 43.3055 29.244C42.7963 29.3453 42.2685 29.2933 41.7888 29.0946C41.3092 28.8959 40.8992 28.5595 40.6107 28.1278C40.3223 27.6961 40.1684 27.1886 40.1684 26.6694C40.1684 25.9732 40.4449 25.3055 40.9372 24.8133C41.4295 24.321 42.0972 24.0444 42.7934 24.0444ZM23.1059 18.7944C23.1059 18.2752 23.2598 17.7677 23.5482 17.336C23.8367 16.9044 24.2467 16.5679 24.7263 16.3692C25.206 16.1706 25.7338 16.1186 26.243 16.2199C26.7522 16.3211 27.2199 16.5711 27.587 16.9383C27.9541 17.3054 28.2041 17.7731 28.3054 18.2823C28.4067 18.7915 28.3547 19.3193 28.156 19.799C27.9574 20.2786 27.6209 20.6886 27.1892 20.977C26.7575 21.2655 26.25 21.4194 25.7309 21.4194C25.0347 21.4194 24.367 21.1429 23.8747 20.6506C23.3824 20.1583 23.1059 19.4906 23.1059 18.7944ZM19.1684 43.7319C18.6492 43.7319 18.1417 43.578 17.71 43.2895C17.2783 43.0011 16.9419 42.5911 16.7432 42.1115C16.5445 41.6318 16.4925 41.104 16.5938 40.5948C16.6951 40.0856 16.9451 39.6179 17.3122 39.2508C17.6793 38.8836 18.147 38.6336 18.6562 38.5324C19.1654 38.4311 19.6932 38.483 20.1729 38.6817C20.6526 38.8804 21.0625 39.2169 21.351 39.6485C21.6394 40.0802 21.7934 40.5877 21.7934 41.1069C21.7934 41.8031 21.5168 42.4708 21.0245 42.9631C20.5322 43.4554 19.8645 43.7319 19.1684 43.7319ZM28.3559 30.6069C28.3559 30.0877 28.5098 29.5802 28.7982 29.1485C29.0867 28.7169 29.4967 28.3804 29.9763 28.1817C30.456 27.983 30.9838 27.9311 31.493 28.0324C32.0022 28.1336 32.4699 28.3836 32.837 28.7508C33.2041 29.1179 33.4541 29.5856 33.5554 30.0948C33.6567 30.604 33.6047 31.1318 33.406 31.6115C33.2074 32.0911 32.8709 32.5011 32.4392 32.7895C32.0075 33.078 31.5 33.2319 30.9809 33.2319C30.2847 33.2319 29.617 32.9554 29.1247 32.4631C28.6324 31.9708 28.3559 31.3031 28.3559 30.6069ZM42.7934 42.4194C42.2742 42.4194 41.7667 42.2655 41.335 41.977C40.9033 41.6886 40.5669 41.2786 40.3682 40.799C40.1695 40.3193 40.1175 39.7915 40.2188 39.2823C40.3201 38.7731 40.5701 38.3054 40.9372 37.9383C41.3043 37.5711 41.772 37.3211 42.2812 37.2199C42.7904 37.1186 43.3182 37.1705 43.7979 37.3692C44.2776 37.5679 44.6875 37.9044 44.976 38.336C45.2644 38.7677 45.4184 39.2752 45.4184 39.7944C45.4184 40.4906 45.1418 41.1583 44.6495 41.6506C44.1572 42.1429 43.4895 42.4194 42.7934 42.4194Z" fill="#1D9ED9"/>
<rect x="1.48047" y="1.10693" width="59" height="59" rx="19.5" stroke="#1D9ED9"/>
</svg>
