<svg width="61" height="61" viewBox="0 0 61 61" fill="none" xmlns="http://www.w3.org/2000/svg">
<rect x="0.660156" y="0.606934" width="60" height="60" rx="20" fill="white" fill-opacity="0.05"/>
<path d="M41.7118 23.7882C43.7593 25.8358 43.7593 29.1643 41.7118 31.2118L37.1915 35.7337C36.8503 36.075 36.4023 36.2465 35.9543 36.2465C35.5063 36.2465 35.0582 36.075 34.717 35.7337C34.0327 35.0495 34.0327 33.9435 34.717 33.2593L39.2373 28.7372C39.9198 28.0548 39.9198 26.9453 39.2373 26.2628L34.717 21.7408C34.0327 21.0565 34.0327 19.9505 34.717 19.2663C35.4012 18.582 36.5072 18.582 37.1915 19.2663L41.7118 23.7882ZM27.283 21.7408C27.9673 21.0565 27.9673 19.9505 27.283 19.2663C26.5988 18.582 25.4928 18.582 24.8085 19.2663L20.2882 23.7882C18.2408 25.8358 18.2408 29.1643 20.2882 31.2118L24.8085 35.7337C25.1497 36.075 25.5977 36.2465 26.0457 36.2465C26.4937 36.2465 26.9418 36.075 27.283 35.7337C27.9673 35.0495 27.9673 33.9435 27.283 33.2593L22.7628 28.7372C22.0803 28.0548 22.0803 26.9453 22.7628 26.2628L27.283 21.7408ZM52 20.5V34.5C52 39.3247 48.0747 43.25 43.25 43.25H32.75V46.75H39.75C40.716 46.75 41.5 47.5322 41.5 48.5C41.5 49.4678 40.716 50.25 39.75 50.25H22.25C21.284 50.25 20.5 49.4678 20.5 48.5C20.5 47.5322 21.284 46.75 22.25 46.75H29.25V43.25H18.75C13.9253 43.25 10 39.3247 10 34.5V20.5C10 15.6753 13.9253 11.75 18.75 11.75H43.25C48.0747 11.75 52 15.6753 52 20.5ZM48.5 20.5C48.5 17.6055 46.1445 15.25 43.25 15.25H18.75C15.8555 15.25 13.5 17.6055 13.5 20.5V34.5C13.5 37.3945 15.8555 39.75 18.75 39.75H43.25C46.1445 39.75 48.5 37.3945 48.5 34.5V20.5Z" fill="#1D9ED9"/>
<rect x="1.16016" y="1.10693" width="59" height="59" rx="19.5" stroke="#1D9ED9"/>
</svg>
