<svg width="61" height="61" viewBox="0 0 61 61" fill="none" xmlns="http://www.w3.org/2000/svg">
<rect x="0.310547" y="0.606934" width="60" height="60" rx="20" fill="white" fill-opacity="0.05"/>
<path opacity="0.2" d="M25.2152 41.107L20.3836 44.7558C20.2096 44.8951 20.0029 44.9879 19.7831 45.0252C19.5633 45.0626 19.3376 45.0433 19.1273 44.9693C18.9171 44.8953 18.7291 44.7689 18.5812 44.6021C18.4333 44.4353 18.3303 44.2335 18.2819 44.0159L16.2541 34.8891C16.2104 34.6932 16.2123 34.4898 16.2595 34.2947C16.3067 34.0996 16.398 33.9179 16.5265 33.7636L21.4992 27.8032C21.3089 31.6324 22.2441 36.0917 25.2152 41.107ZM44.7944 33.7636L39.8217 27.8032C40.0202 31.6324 39.0769 36.0917 36.1057 41.107L40.9373 44.7558C41.1114 44.8951 41.318 44.9879 41.5378 45.0252C41.7576 45.0626 41.9833 45.0433 42.1936 44.9693C42.4039 44.8953 42.5918 44.7689 42.7397 44.6021C42.8876 44.4353 42.9906 44.2335 43.039 44.0159L45.0668 34.8891C45.1105 34.6932 45.1087 34.4898 45.0614 34.2947C45.0142 34.0996 44.9229 33.9179 44.7944 33.7636Z" fill="#1D9ED9"/>
<path d="M34.5977 46.357C34.5977 46.7051 34.4595 47.039 34.2133 47.2851C33.9672 47.5312 33.6333 47.6695 33.2852 47.6695H28.0352C27.6871 47.6695 27.3533 47.5312 27.1072 47.2851C26.861 47.039 26.7227 46.7051 26.7227 46.357C26.7227 46.0089 26.861 45.6751 27.1072 45.4289C27.3533 45.1828 27.6871 45.0445 28.0352 45.0445H33.2852C33.6333 45.0445 33.9672 45.1828 34.2133 45.4289C34.4595 45.6751 34.5977 46.0089 34.5977 46.357ZM30.6602 27.982C31.0496 27.982 31.4303 27.8666 31.754 27.6502C32.0778 27.4339 32.3301 27.1264 32.4791 26.7667C32.6281 26.4069 32.6671 26.0111 32.5912 25.6292C32.5152 25.2473 32.3277 24.8965 32.0523 24.6212C31.777 24.3458 31.4262 24.1583 31.0443 24.0824C30.6624 24.0064 30.2666 24.0454 29.9068 24.1944C29.5471 24.3434 29.2396 24.5957 29.0233 24.9195C28.8069 25.2433 28.6915 25.6239 28.6915 26.0133C28.6915 26.5354 28.8989 27.0362 29.2681 27.4054C29.6373 27.7746 30.1381 27.982 30.6602 27.982ZM46.3479 35.1729L44.3201 44.2997C44.2239 44.7331 44.0193 45.135 43.7255 45.4679C43.4318 45.8007 43.0584 46.0536 42.6403 46.2029C42.2222 46.3523 41.773 46.3931 41.3349 46.3216C40.8967 46.2501 40.4838 46.0687 40.1348 45.7943L35.6658 42.4195H25.658L21.1856 45.7943C20.8366 46.0687 20.4238 46.2501 19.9856 46.3216C19.5474 46.3931 19.0983 46.3523 18.6802 46.2029C18.2621 46.0536 17.8887 45.8007 17.5949 45.4679C17.3011 45.135 17.0966 44.7331 17.0004 44.2997L14.9726 35.1729C14.8866 34.7812 14.8909 34.3751 14.9853 33.9854C15.0797 33.5956 15.2616 33.2325 15.5173 32.9236L20.2029 27.3028C20.3602 25.2372 20.8344 23.208 21.6089 21.2866C23.7253 15.9809 27.5152 12.652 29.0524 11.4675C29.5126 11.111 30.0781 10.9175 30.6602 10.9175C31.2423 10.9175 31.8079 11.111 32.268 11.4675C33.8004 12.652 37.5952 15.9809 39.7116 21.2866C40.4861 23.208 40.9603 25.2372 41.1176 27.3028L45.8032 32.9236C46.0589 33.2325 46.2408 33.5956 46.3352 33.9854C46.4296 34.3751 46.4339 34.7812 46.3479 35.1729ZM25.973 39.7945H35.3475C38.8125 33.6356 39.4605 27.7392 37.2736 22.2595C35.3442 17.423 31.725 14.3648 30.6602 13.5445C29.5922 14.3648 25.973 17.423 24.0436 22.2595C21.8599 27.7392 22.508 33.6356 25.973 39.7945ZM23.512 40.7543C21.7456 37.5441 20.6737 34.3892 20.2964 31.2895L17.5352 34.6036L19.563 43.732L19.5926 43.7107L23.512 40.7543ZM43.7852 34.6036L41.0241 31.2895C40.65 34.3827 39.5803 37.5376 37.815 40.7543L41.7279 43.7074L41.7574 43.7287L43.7852 34.6036Z" fill="#1D9ED9"/>
<rect x="0.810547" y="1.10693" width="59" height="59" rx="19.5" stroke="#1D9ED9"/>
</svg>
