<svg width="32" height="34" viewBox="0 0 32 34" fill="none" xmlns="http://www.w3.org/2000/svg">
<rect opacity="0.25" x="0.511563" y="1.16098" width="30.1952" height="31.5731" rx="15.0976" stroke="white" stroke-width="0.79461"/>
<path fill-rule="evenodd" clip-rule="evenodd" d="M12.8282 22.3425H10.4443V14.873H12.8282V22.3425Z" fill="white"/>
<path fill-rule="evenodd" clip-rule="evenodd" d="M11.6292 13.2125H11.6156C10.9042 13.2125 10.4443 12.6589 10.4443 11.9671C10.4443 11.2607 10.9182 10.7227 11.6431 10.7227C12.368 10.7227 12.8144 11.2607 12.8282 11.9671C12.8282 12.6589 12.368 13.2125 11.6292 13.2125Z" fill="white"/>
<path fill-rule="evenodd" clip-rule="evenodd" d="M21.5694 22.3423H19.2269V18.4379C19.2269 17.4572 18.8879 16.788 18.0399 16.788C17.3927 16.788 17.0072 17.2392 16.8379 17.6749C16.776 17.8311 16.7608 18.0487 16.7608 18.2668V22.3425H14.418C14.418 22.3425 14.4488 15.7294 14.418 15.0446H16.7608V16.0783C17.0717 15.5814 17.6286 14.873 18.8723 14.873C20.4138 14.873 21.5695 15.9163 21.5695 18.1579L21.5694 22.3423Z" fill="white"/>
</svg>
