<svg width="32" height="34" viewBox="0 0 32 34" fill="none" xmlns="http://www.w3.org/2000/svg">
<rect opacity="0.25" x="0.62582" y="1.16098" width="30.1952" height="31.5731" rx="15.0976" stroke="white" stroke-width="0.79461"/>
<path fill-rule="evenodd" clip-rule="evenodd" d="M15.5744 14.8109L15.5968 15.2058L15.2236 15.1574C13.8651 14.9721 12.6784 14.3435 11.6707 13.2878L11.1781 12.764L11.0512 13.1508C10.7825 14.0131 10.9542 14.9237 11.514 15.5362C11.8125 15.8746 11.7454 15.923 11.2303 15.7215C11.0512 15.6571 10.8945 15.6087 10.8795 15.6329C10.8273 15.6893 11.0064 16.4226 11.1482 16.7127C11.3423 17.1157 11.7379 17.5105 12.1708 17.7442L12.5365 17.9296L12.1036 17.9376C11.6856 17.9376 11.6707 17.9457 11.7155 18.1149C11.8648 18.6387 12.4544 19.1948 13.1113 19.4365L13.574 19.6058L13.171 19.8636C12.5739 20.2343 11.8722 20.4439 11.1706 20.46C10.8348 20.468 10.5586 20.5003 10.5586 20.5244C10.5586 20.605 11.4692 21.0563 11.9991 21.2336C13.589 21.7574 15.4773 21.5318 16.8955 20.6373C17.9031 20.0006 18.9107 18.7354 19.381 17.5105C19.6347 16.8578 19.8885 15.6651 19.8885 15.093C19.8885 14.7223 19.9109 14.6739 20.3289 14.2307C20.5752 13.9728 20.8066 13.6908 20.8514 13.6102C20.926 13.4571 20.9185 13.4571 20.5379 13.5941C19.9034 13.8358 19.8139 13.8036 20.1274 13.441C20.3587 13.1831 20.6349 12.7157 20.6349 12.5787C20.6349 12.5545 20.523 12.5948 20.3961 12.6673C20.2617 12.7479 19.9632 12.8688 19.7392 12.9413L19.3362 13.0783L18.9705 12.8124C18.7689 12.6673 18.4853 12.5062 18.336 12.4578C17.9554 12.345 17.3732 12.3611 17.0298 12.49C16.0968 12.8527 15.5072 13.7875 15.5744 14.8109Z" fill="white"/>
</svg>
